PathFileType	4	(X/Y/Z)	C:/Users/beibeiliu/ov580/test_trc/User1\sequence.25_training_dense_left.trc
DataRate	CameraRate	NumFrames	NumMarkers	Units	OrigDataRate	OrigDataStartFrame	OrigNumFrames
120	120	17	19	mm	120	182	242
Frame#	Time	ThumbCMC			ThumbMCP			ThumbIP			ThumbTip			IndexMCP			IndexPIP			IndexTip			MiddleMCP			MiddlePIP			MiddleTip			RingMCP			RingPIP			RingTip			PinkyMCP			PinkyPIP			PinkyTip			BackHand1			BackHand2			BackHand3	
		X0	Y0	Z0	X1	Y1	Z1	X2	Y2	Z2	X3	Y3	Z3	X4	Y4	Z4	X5	Y5	Z5	X6	Y6	Z6	X7	Y7	Z7	X8	Y8	Z8	X9	Y9	Z9	X10	Y10	Z10	X11	Y11	Z11	X12	Y12	Z12	X13	Y13	Z13	X14	Y14	Z14	X15	Y15	Z15	X16	Y16	Z16	X17	Y17	Z17	X18	Y18	Z18	
181	1.50833	-110.581	-43.4414	55.4494	-91.8311	-42.7182	19.331	-97.6925	-36.6235	-8.69945	-116.242	-36.5947	-32.8865	-110.931	13.3089	-10.2843	-111.905	20.7272	-28.3041	-112.837	39.1343	-51.8259	-124.835	3.60424	-28.2725	-112.144	1.55138	-53.3709	-103.753	-12.2201	-87.4122	-144.485	-31.3597	-30.428	-125.873	-63.8741	-30.4397	-126.324	-72.9934	-1.12728	-164.829	-43.483	-23.9762	-140.902	-64.415	-19.9311	-137.376	-68.0191	11.7522	-164.476	-14.0473	27.0195	-175.37	-29.1753	59.4499	-140.097	-12.4424	50.5617	
182	1.51667	-114.774	-40.815	56.0938	-96.7351	-36.9432	18.4859	-105.372	-31.8177	-12.4661	-121.84	-37.2634	-33.0546	-121.684	13.7533	-11.3587	-122.487	23.0874	-31.8526	-128.047	39.1865	-55.6256	-134.606	3.28839	-32.0144	-124.334	-1.19861	-63.1135	-116.479	-13.2046	-87.2102	-144.552	-33.7778	-33.1024	-129.883	-63.5857	-31.1976	-130.781	-73.3082	2.94208	-166.666	-48.1694	-25.97	-148.74	-70.7106	-22.4642	-141.466	-68.2705	12.202	-173.906	-18.5515	24.5832	-179.309	-30.2859	59.5614	-146.108	-12.7174	50.9699	
183	1.525	-119.614	-33.7805	52.471	-101.349	-30.8995	15.5246	-111.667	-28.3515	-13.9281	-134.252	-37.6848	-30.4139	-136.631	15.1067	-17.6307	-136.042	28.2994	-40.0294	-142.784	38.1869	-58.411	-150.029	0.441711	-34.0899	-137.659	-2.85312	-66.7647	-127.289	-15.6961	-93.7734	-155.907	-36.1099	-33.6664	-136.263	-65.8084	-33.1811	-129.471	-73.2117	-2.7911	-174.768	-51.9484	-24.9951	-149.105	-68.2381	-20.562	-137.044	-67.7393	8.09161	-178.619	-20.3228	26.3331	-186.842	-32.5554	57.8569	-153.965	-12.2142	50.2661	
184	1.53333	-121.925	-26.9453	47.5674	-107.206	-26.8899	11.7288	-120.795	-27.5619	-15.8905	-137.359	-38.1044	-33.265	-148.353	14.3754	-19.3106	-151.316	23.1845	-40.1971	-163.63	32.4319	-61.242	-160.097	-2.42123	-41.0256	-149.287	-2.86565	-64.7596	-139.838	-14.7678	-94.1006	-163.658	-40.6337	-36.7406	-140.514	-62.942	-35.7238	-130.825	-74.4261	-3.60098	-178.301	-55.9874	-25.5352	-152.024	-68.5676	-21.7816	-139.905	-68.788	6.72683	-187.206	-22.1767	24.1156	-186.786	-35.1973	58.3206	-159.404	-9.47641	45.9588	
185	1.54167	-125.622	-23.9305	45.0993	-114.819	-22.0633	7.58567	-128.529	-23.6012	-21.3355	-147.827	-38.1574	-34.8161	-161.302	15.2328	-23.9494	-168.025	20.636	-42.7727	-181.243	27.2637	-63.8616	-168.612	-1.33756	-40.526	-162.943	-8.13363	-66.9577	-153.334	-19.0786	-95.5213	-171.669	-39.5392	-33.3598	-145.146	-59.928	-38.9687	-130.851	-70.8968	-8.53346	-184.068	-55.3153	-22.1224	-155.002	-71.2857	-20.6452	-139.921	-64.2113	3.12854	-192.259	-24.1827	24.5357	-188.507	-33.9946	56.3475	-164.182	-8.145	44.3688	
186	1.55	-128.772	-16.3241	43.2224	-121.031	-16.0106	3.92974	-131.957	-19.9752	-25.0365	-149.776	-36.6746	-39.0083	-172.042	11.6021	-23.14	-184.468	18.9953	-48.3159	-196.478	21.6345	-64.9238	-181.67	-8.81662	-39.035	-171.766	-11.7759	-70.6368	-163.546	-22.968	-97.5039	-172.68	-42.6567	-36.4076	-146.662	-63.1295	-37.5239	-130.778	-70.1094	-7.16837	-184.637	-65.1573	-23.1185	-157.13	-68.783	-23.1144	-138.747	-57.4993	2.92118	-199.685	-32.814	25.1594	-193.804	-36.4654	57.5206	-169.695	-8.33978	45.8481	
187	1.55833	-137.14	-15.1354	41.1328	-128.545	-11.8469	4.56112	-139.457	-15.4733	-26.1593	-156.36	-33.2653	-42.6341	-184.259	10.473	-27.2736	-192.424	15.3862	-44.9737	-211.277	17.5867	-68.5325	-185.764	-9.85111	-44.0188	-180.346	-17.7393	-70.2478	-169.081	-27.4485	-96.1289	-175.1	-43.1221	-36.9986	-145.941	-57.5702	-38.1958	-129.355	-64.3685	-12.4698	-184.08	-67.6168	-23.2983	-154.807	-71.0621	-22.4777	-138.787	-57.8704	2.64553	-199.166	-31.7117	21.1876	-195.097	-42.3608	56.1295	-179.916	-10.3869	41.2133	
188	1.56667	-139.59	-9.52823	39.5681	-132.425	-6.07937	0.513279	-144.972	-11.5244	-27.8552	-160.681	-32.9749	-42.1961	-189.935	9.37737	-26.9824	-199.388	12.6189	-46.5258	-218.13	10.3633	-68.5349	-191.929	-17.4193	-40.9384	-181.064	-20.3021	-69.8979	-166.188	-30.9568	-100.779	-176.902	-47.9828	-36.0867	-144.472	-59.348	-36.8768	-126.715	-58.7979	-8.28257	-179.56	-67.01	-24.2872	-153.405	-70.8583	-22.6121	-137.523	-58.6565	2.55	-205.018	-38.2645	20.972	-193.866	-43.7223	59.7618	-183.833	-9.84658	39.6979	
189	1.575	-142.218	-6.67853	37.9126	-137.643	-6.47509	1.83171	-144.245	-9.87174	-27.8267	-159.57	-31.7235	-46.723	-190.981	8.93685	-26.5515	-202.712	9.56056	-49.6078	-217.358	7.59676	-69.8299	-190.466	-18.2834	-43.3083	-179.668	-25.1931	-70.7969	-160.895	-36.7591	-97.8381	-172.15	-45.4639	-37.2941	-138.407	-58.3538	-34.7207	-122.567	-54.8048	-5.42419	-175.716	-69.167	-24.8004	-149.644	-65.939	-21.8142	-135.962	-52.0148	5.21273	-201.203	-38.2077	24.5743	-193.992	-44.8123	59.6016	-182.12	-9.86852	40.2432	
190	1.58333	-142.184	-2.19807	37.5968	-136.461	-2.63531	-1.39733	-145.214	-8.65936	-29.5642	-155.801	-29.2544	-47.5089	-189.806	4.41587	-29.3298	-199.546	1.03568	-52.1311	-214.711	1.04947	-76.3801	-186.055	-21.7123	-46.2843	-170.018	-25.5721	-74.5569	-149.328	-38.8446	-94.8092	-169.467	-51.401	-34.6363	-134.321	-52.8624	-34.2851	-119.644	-53.8867	-2.95005	-172.996	-68.4792	-21.8362	-142.131	-64.1106	-20.1589	-131.945	-47.4413	8.10656	-199.077	-44.5471	17.5129	-193.014	-47.4824	53.3177	-182.653	-10.0138	41.5328	
191	1.59167	-145.107	-2.55095	36.8519	-132.84	-0.336991	3.22817	-139.554	-7.05662	-24.7414	-150.08	-28.9136	-43.6515	-186.076	2.00893	-34.7548	-194.472	0.806204	-58.1585	-204.999	-5.30427	-80.035	-178.7	-23.9916	-48.0179	-162.016	-30.6328	-72.4689	-132.622	-39.0807	-92.6872	-158.384	-46.261	-37.1884	-125.42	-52.9418	-30.0274	-115.352	-50.4239	0.785285	-162.546	-66.349	-22.8033	-134.178	-63.5125	-19.2759	-130.728	-44.931	9.96761	-196.029	-45.5989	16.4125	-191.495	-47.4436	51.0396	-183.833	-14.7916	38.6839	
192	1.6	-141.519	2.12111	38.6753	-130.321	2.78808	1.55676	-136.6	-7.5027	-25.7214	-140.159	-29.8964	-47.6764	-180.61	1.60405	-40.3904	-183.599	-4.0558	-60.2259	-192.729	-4.34225	-87.4416	-170.405	-25.3249	-47.8234	-148.632	-31.9491	-71.4993	-119.786	-38.1995	-87.5012	-149.725	-49.8812	-35.5091	-116.217	-50.7369	-27.026	-109.321	-42.7532	5.71841	-153.826	-71.1994	-21.9986	-125.014	-64.105	-16.4381	-121.65	-45.896	13.1353	-189.474	-46.528	16.4199	-186.653	-45.171	53.275	-181.923	-12.7788	35.5041	
193	1.60833	-141.283	3.90304	40.5786	-127.007	1.47744	4.62565	-130.554	-7.01151	-26.3455	-129.977	-26.5596	-46.8428	-173.461	0.179612	-44.4464	-174.134	-2.4724	-65.7714	-181.685	-10.9939	-90.5149	-158.291	-25.623	-52.9684	-137.383	-31.31	-71.0808	-104.795	-37.9989	-82.1009	-139.92	-50.5662	-35.3581	-108.805	-47.623	-23.5529	-103.703	-43.77	6.15834	-147.575	-66.7859	-21.9256	-117.227	-61.941	-13.681	-119.236	-42.8618	17.8113	-184.867	-48.6118	9.96182	-188.072	-49.9334	48.9105	-180.569	-11.449	31.5323	
194	1.61667	-141.865	2.98496	36.3074	-123.584	5.33615	3.7639	-122.709	-5.15323	-22.0026	-125.652	-27.1987	-41.9369	-166.882	-1.51966	-44.8236	-167.185	-3.64875	-70.7524	-170.524	-8.28654	-90.726	-151.902	-24.1184	-52.1005	-124.817	-29.4242	-71.21	-94.4262	-36.3742	-76.1471	-137.121	-48.7935	-34.3282	-104.5	-47.3899	-23.2974	-101.28	-38.6657	12.5139	-140.249	-67.5524	-21.7283	-112.616	-56.8331	-9.88476	-116.758	-39.9124	17.1619	-181.247	-48.2693	10.6661	-182.829	-47.8406	46.8435	-179.326	-13.559	31.2903	
195	1.625	-139.58	4.99046	39.4238	-120.838	6.77655	7.29478	-119.555	-1.21551	-23.8278	-115.587	-22.5787	-41.5208	-162.529	0.427494	-43.5453	-161.631	-5.02336	-71.5199	-163.023	-10.8496	-93.6288	-145.4	-24.6991	-53.2002	-121.063	-29.8272	-67.6892	-82.3719	-31.2517	-71.2188	-131.081	-49.1037	-33.0693	-99.2834	-46.2499	-20.5923	-97.3362	-38.8394	11.8379	-132.139	-64.7074	-21.0682	-108.662	-55.3211	-11.2105	-115.507	-37.2059	17.9144	-178.527	-46.2765	7.81733	-181.591	-45.5857	41.9222	-178.34	-12.3164	24.5951	
196	1.63333	-140.598	4.3445	37.713	-118.724	8.54228	8.78496	-113.057	0.694461	-20.9616	-112.128	-25.0233	-43.6103	-158.849	0.929429	-45.5772	-155.535	-5.8324	-67.6234	-157.47	-14.3311	-94.0218	-142.087	-24.4063	-50.6468	-110.192	-28.5204	-66.2245	-74.5692	-26.1075	-66.9878	-124.554	-46.1447	-33.1524	-94.1741	-38.0824	-16.1326	-96.065	-33.1927	15.4243	-128.432	-62.9234	-19.9871	-103.805	-53.1175	-7.03259	-111.918	-38.0009	21.2505	-174.88	-48.4289	7.02563	-181.764	-48.1487	42.6525	-176.137	-9.85748	27.5485	
197	1.64167	-140.979	9.79463	36.9396	-117.727	10.0942	8.95431	-113.503	-1.00691	-21.7842	-106.893	-22.6238	-41.3029	-155.713	-0.485889	-48.9355	-151.883	-7.67177	-72.2752	-152.087	-13.5358	-93.3678	-137.048	-26.5831	-50.4658	-108.608	-22.6818	-63.6428	-69.8892	-23.7661	-63.2067	-120.991	-44.1523	-31.8597	-92.1172	-36.5683	-15.7377	-94.239	-33.6606	17.0889	-123.269	-62.34	-18.8021	-100.649	-51.4705	-3.92027	-107.547	-34.3755	21.5379	-171.312	-47.1066	5.93265	-177.309	-48.2838	44.8617	-175.043	-13.5297	23.0577	
